<?xml version="1.0" encoding="UTF-8"?>
<svg width="511px" height="511px" viewBox="0 0 511 511" version="1.1" xmlns="http://www.w3.org/2000/svg" xmlns:xlink="http://www.w3.org/1999/xlink">
    <!-- Generator: Sketch 52.6 (67491) - http://www.bohemiancoding.com/sketch -->
    <title>clock</title>
    <desc>Created with Sketch.</desc>
    <g id="clock" stroke="none" stroke-width="1" fill="none" fill-rule="evenodd">
        <rect fill="#C1FF00" x="0" y="0" width="511" height="511"></rect>
        <g transform="translate(77.000000, 89.000000)">
            <circle id="Oval" fill="#EAB14D" cx="145.5" cy="145.5" r="141.074144"></circle>
            <path d="M145.79879,4.42585551 C143.285804,4.42585551 140.78868,4.49454755 138.307985,4.62511919 C212.573625,8.52750821 271.592535,70.1050949 271.592535,145.5 C271.592535,220.894905 212.573625,282.473059 138.308551,286.374881 C140.789247,286.505452 143.285804,286.574144 145.799356,286.574144 C223.547261,286.574144 286.574144,223.413235 286.574144,145.5 C286.574144,67.5867653 223.546694,4.42585551 145.79879,4.42585551 Z" id="Path" fill="#E49542"></path>
            <circle id="Oval" fill="#F4FBFF" cx="145.5" cy="145.5" r="110.093156"></circle>
            <path d="M145.175149,35.4068441 C142.11709,35.4068441 139.089823,35.5364705 136.095057,35.7798042 C192.829098,40.3849516 237.432971,87.7463345 237.432971,145.5 C237.432971,203.253666 192.829098,250.615048 136.095057,255.220196 C139.090393,255.46353 142.11766,255.593156 145.175149,255.593156 C206.157287,255.593156 255.593156,206.302728 255.593156,145.5 C255.593156,84.697272 206.157287,35.4068441 145.175149,35.4068441 Z" id="Path" fill="#DAF1F4"></path>
            <circle id="Oval" fill="#365E7D" cx="145.5" cy="145.5" r="11.6178707"></circle>
            <g id="Group" fill="#000000">
                <path d="M145.5,69.3154043 C147.854145,69.3154043 149.762695,67.4068535 149.762695,65.052709 L149.762695,58.796209 C149.762695,56.4420645 147.854145,54.5335137 145.5,54.5335137 C143.145855,54.5335137 141.237305,56.4420645 141.237305,58.796209 L141.237305,65.052709 C141.237305,67.4068535 143.145855,69.3154043 145.5,69.3154043 Z" id="Path"></path>
                <path d="M209.592182,81.2731172 C207.927457,79.6083926 205.228318,79.6078242 203.564162,81.2731172 L199.140053,85.6966582 C197.47476,87.3613828 197.47476,90.0605215 199.139484,91.7252461 C199.972131,92.5573242 201.062813,92.9739316 202.154063,92.9739316 C203.244744,92.9739316 204.335994,92.5578926 205.168072,91.7258145 L209.592182,87.3017051 C211.256338,85.6369805 211.256338,82.9378418 209.592182,81.2731172 Z" id="Path"></path>
                <path d="M225.484078,141.237873 C223.129365,141.237873 221.221383,143.146424 221.221383,145.500568 C221.221383,147.854713 223.129365,149.763264 225.484078,149.763264 L231.740578,149.763264 C234.095291,149.763264 236.003273,147.855281 236.003273,145.500568 C236.003273,143.145855 234.095291,141.237873 231.740578,141.237873 L225.484078,141.237873 Z" id="Path"></path>
                <path d="M204.839561,199.139484 C203.174268,197.475328 200.475697,197.475328 198.810973,199.139484 C197.146248,200.804777 197.146248,203.503348 198.810973,205.168072 L203.234514,209.591613 C204.06716,210.423691 205.15841,210.83973 206.249092,210.83973 C207.339773,210.83973 208.431023,210.423691 209.26367,209.591613 C210.928395,207.92632 210.928395,205.22775 209.26367,203.563025 L204.839561,199.139484 Z" id="Path"></path>
                <path d="M140.772955,225.484646 L140.772955,231.741146 C140.772955,234.095859 142.681506,236.003842 145.03565,236.003842 C147.389795,236.003842 149.298346,234.095859 149.298346,231.741146 L149.298346,225.484646 C149.298346,223.129934 147.390363,221.221951 145.03565,221.221951 C142.680938,221.221951 140.772955,223.129934 140.772955,225.484646 Z" id="Path"></path>
                <path d="M85.3681465,198.810973 L80.9440371,203.234514 C79.2793125,204.899238 79.2793125,207.598377 80.9440371,209.262533 C81.7761152,210.09518 82.8673652,210.511219 83.9580469,210.511219 C85.0487285,210.511219 86.1399785,210.09518 86.9720566,209.263102 L91.396166,204.839561 C93.0608906,203.174836 93.0608906,200.475697 91.396166,198.811541 C89.7320098,197.146816 87.0328711,197.147385 85.3681465,198.810973 Z" id="Path"></path>
                <path d="M58.7956406,140.773523 C56.4414961,140.773523 54.5329453,142.682074 54.5329453,145.036219 C54.5329453,147.390932 56.4414961,149.298914 58.7956406,149.298914 L65.0521406,149.298914 C67.4062852,149.298914 69.3148359,147.390932 69.3148359,145.036219 C69.3148359,142.682074 67.4062852,140.773523 65.0521406,140.773523 L58.7956406,140.773523 Z" id="Path"></path>
                <path d="M91.7252461,85.3687148 L87.3011367,80.9446055 C85.6358438,79.2798809 82.9378418,79.2804492 81.2725488,80.9446055 C79.6078242,82.6093301 79.6083926,85.3084687 81.2725488,86.9731934 L85.6966582,91.3967344 C86.5293047,92.2293809 87.6199863,92.6454199 88.710668,92.6454199 C89.8013496,92.6454199 90.8925996,92.2293809 91.7252461,91.3967344 C93.3899707,89.7320098 93.3894023,87.0334395 91.7252461,85.3687148 Z" id="Path"></path>
                <path d="M156.922887,156.166969 L187.285781,171.779801 C189.392121,172.863094 191.955422,172.019648 193.026211,169.938316 C194.103252,167.84448 193.277994,165.274928 191.184727,164.197887 L160.832062,148.59017 C161.033262,147.590426 161.140113,146.557148 161.140113,145.499432 C161.140113,138.353449 156.320994,132.315768 149.763264,130.454959 L149.763264,87.0055898 C149.763264,84.6514453 147.854713,82.7428945 145.500568,82.7428945 C143.146424,82.7428945 141.237873,84.6514453 141.237873,87.0055898 L141.237873,130.454959 C136.036248,131.930988 131.932125,136.035111 130.456096,141.236736 L109.297781,141.236736 C106.943637,141.236736 105.035086,143.145287 105.035086,145.499432 C105.035086,147.853576 106.943637,149.762127 109.297781,149.762127 L130.456096,149.762127 C132.316904,156.319857 138.354586,161.139545 145.500568,161.139545 C150.004248,161.140113 154.066881,159.224174 156.922887,156.166969 Z M145.5,152.614723 C141.577184,152.614723 138.385277,149.423385 138.385277,145.5 C138.385277,141.577184 141.576615,138.385277 145.5,138.385277 C149.422816,138.385277 152.614154,141.576615 152.614154,145.5 C152.614723,149.423385 149.422816,152.614723 145.5,152.614723 Z" id="Shape" fill-rule="nonzero"></path>
                <path d="M255.558814,141.229348 C257.906139,141.049746 259.663506,139.001379 259.483904,136.653486 C257.290605,108.012152 244.461029,81.4248691 223.357846,61.7886211 C202.1444,42.0495 174.494285,31.1784902 145.5,31.1784902 C82.4632617,31.1784902 31.1784902,82.4626934 31.1784902,145.5 C31.1784902,208.537307 82.4632617,259.82151 145.5,259.82151 C205.118625,259.82151 254.92282,213.894662 259.483336,154.34765 C259.662369,152.000326 257.906139,149.951959 255.558246,149.771789 C253.220584,149.596166 251.162555,151.348986 250.982385,153.696879 C246.772547,208.678828 200.786021,251.296119 145.5,251.296119 C87.1635938,251.296119 39.7038809,203.836406 39.7038809,145.5 C39.7038809,87.1635937 87.1635938,39.7038809 145.5,39.7038809 C172.331109,39.7038809 197.919217,49.7638418 217.55035,68.0303438 C237.080314,86.2030664 248.95391,110.80507 250.982385,137.304826 C251.162555,139.651014 253.202965,141.412928 255.558814,141.229348 Z" id="Path"></path>
                <path d="M248.384414,42.6161543 C220.903102,15.1342734 184.364982,0 145.5,0 C117.569115,0 90.4356387,7.93657031 67.0317363,22.952625 C65.0504355,24.2240449 64.4746875,26.8606641 65.7461074,28.8425332 C67.0175273,30.8232656 69.6535781,31.3990137 71.6360156,30.1281621 C93.6627832,15.9953379 119.204854,8.52539062 145.5,8.52539062 C182.087566,8.52539062 216.484676,22.7730234 242.355826,48.6441738 C268.226977,74.5153242 282.474609,108.912434 282.474609,145.5 C282.474609,221.20149 221.212289,282.474609 145.5,282.474609 C131.971342,282.474609 118.591025,280.498992 105.730758,276.604025 C103.477213,275.920857 101.097492,277.193982 100.415461,279.448096 C99.7328613,281.701072 101.005986,284.080225 103.258963,284.763393 C116.921754,288.901617 131.13358,291 145.5,291 C225.913758,291 291,225.924557 291,145.5 C291,106.635586 275.865158,70.0974668 248.384414,42.6161543 Z" id="Path"></path>
                <path d="M90.2304609,270.856775 C40.5967734,248.94027 8.52539062,199.734557 8.52539062,145.5 C8.52539062,104.516742 26.6623066,66.0189199 58.2852539,39.8766621 C60.099457,38.3767617 60.3546504,35.690127 58.8541816,33.8753555 C57.3548496,32.0617207 54.6682148,31.8065273 52.852875,33.3058594 C19.264541,61.0730566 0,101.965945 0,145.5 C0,203.108906 34.0657559,255.375803 86.7862031,278.656371 C87.3460371,278.903607 87.9308789,279.020689 88.5060586,279.020689 C90.1429336,279.020689 91.7036484,278.072666 92.4078457,276.478418 C93.3587109,274.324904 92.3839746,271.808209 90.2304609,270.856775 Z" id="Path"></path>
            </g>
        </g>
        <g id="heart" transform="translate(230.000000, 234.000000)">
            <g id="Group" transform="translate(10.000000, 6.000000)" fill="#FF7B79">
                <path d="M139.200917,0 C177.230087,0 190.482677,35.0118537 190.482677,55.5192923 C190.482677,97.1587616 156.243928,120.81692 95.5,173.497789 C34.756072,120.81692 0.517323159,97.1587616 0.517323159,55.5192923 C0.517323159,35.0118537 13.7699127,0 51.7990827,0 C75.1455775,0 88.0857697,17.0374828 95.5,30.59807 C102.91423,17.0374828 115.854422,0 139.200917,0 Z" id="Path"></path>
            </g>
            <g id="Group" fill="#000000" fill-rule="nonzero">
                <path d="M204.384242,62.6521902 C204.384242,38.4294612 188.583232,0 146.18351,0 C128.762846,0 114.108919,8.23876301 102.5,24.5241556 C90.8910811,8.23876301 76.2364604,0 58.8164895,0 C16.4160737,0 0.615758412,38.4294612 0.615758412,62.6521902 C0.615758412,104.415444 33.1074078,130.539319 77.4952671,168.615839 C84.0176073,174.209984 90.7620083,179.995566 97.9526125,186.253823 C99.2572193,187.38922 100.878263,187.95657 102.5,187.95657 C104.121737,187.95657 105.742781,187.38922 107.047388,186.253823 C114.237992,179.995566 120.982393,174.209984 127.504733,168.615839 C173.975106,128.753035 204.384242,103.532744 204.384242,62.6521902 Z M102.5,171.789521 C96.954727,166.988971 91.6662118,162.452256 86.5150967,158.033188 C40.0752573,118.19823 14.4945544,96.2546481 14.4945544,62.6521902 C14.4945544,39.8586272 29.3594389,13.9227089 58.8164895,13.9227089 C74.1893379,13.9227089 86.4866452,22.7775518 96.4113722,40.9926319 C97.6278487,43.2258344 99.9629561,44.6153207 102.5,44.6153207 C105.037044,44.6153207 107.372151,43.2258344 108.588628,40.9926319 C118.513355,22.7775518 130.810662,13.9227089 146.18351,13.9227089 C175.229055,13.9227089 190.505446,39.4736643 190.505446,62.6521902 C190.505446,96.2546481 164.924743,118.19823 118.484903,158.033884 C113.333788,162.452256 108.045273,166.988971 102.5,171.789521 Z" id="Shape"></path>
            </g>
        </g>
    </g>
</svg>