<?xml version="1.0" encoding="UTF-8"?>
<svg width="511px" height="511px" viewBox="0 0 511 511" version="1.1" xmlns="http://www.w3.org/2000/svg" xmlns:xlink="http://www.w3.org/1999/xlink">
    <!-- Generator: Sketch 52.6 (67491) - http://www.bohemiancoding.com/sketch -->
    <title>face</title>
    <desc>Created with Sketch.</desc>
    <g id="face" stroke="none" stroke-width="1" fill="none" fill-rule="evenodd">
        <rect fill="#FFA000" x="0" y="0" width="511" height="511"></rect>
        <g id="straight" transform="translate(184.037394, 245.104447) rotate(-14.000000) translate(-184.037394, -245.104447) translate(62.762346, 123.829399)">
            <circle id="Oval" fill="#FFF08A" cx="120.878725" cy="121.671372" r="116.12284"></circle>
            <g id="Group" fill="#000000">
                <path d="M220.929096,52.6877438 C219.451101,50.5345798 216.508349,49.9875419 214.355185,51.4650644 C212.202021,52.9430597 211.654983,55.8862846 213.132505,58.0389758 C243.493347,102.271508 237.944955,161.954435 199.940239,199.952531 C178.184488,221.7045 149.616531,232.579066 121.038645,232.576229 C92.4678509,232.573392 63.8880737,221.698826 42.1375238,199.953004 C21.0626154,178.881878 9.45614412,150.866633 9.45614412,121.067486 C9.45614412,91.268339 21.0626154,63.2535665 42.1379966,42.1824405 C80.1053609,4.22264116 139.763229,-1.35033738 183.990087,28.9306001 C186.144197,30.404813 189.086476,29.855411 190.562108,27.7003558 C192.037266,25.5457733 191.486446,22.6034941 189.331863,21.1283356 C141.351861,-11.7232547 76.6359016,-5.6817242 35.4520299,35.4955282 C12.5903831,58.352447 2.84217094e-14,88.7426029 2.84217094e-14,121.067486 C2.84217094e-14,153.392369 12.5903831,183.782525 35.4520299,206.639444 C58.313204,229.496363 88.7085608,242.084382 121.039118,242.084382 C153.369674,242.084382 183.765031,229.496363 206.626205,206.639444 C247.851684,165.42153 253.866737,100.675784 220.929096,52.6877438 Z" id="Path"></path>
                <path d="M200.380422,43.8604333 C202.045176,44.9682206 204.296684,44.8996635 205.882479,43.6779297 C207.408701,42.5015854 208.082924,40.459531 207.543451,38.6075452 C206.996413,36.7300278 205.297144,35.3551044 203.344923,35.2137351 C201.336438,35.0685833 199.409276,36.2600574 198.640964,38.120081 C197.782819,40.1975959 198.53742,42.5970924 200.380422,43.8604333 Z" id="Path"></path>
                <path d="M89.9085455,170.432341 C90.3137413,170.431868 90.7260292,170.379859 91.1364258,170.269222 C110.697878,165.022954 131.377993,165.022481 150.940864,170.269222 C153.463763,170.948173 156.056165,169.449847 156.732279,166.927894 C157.408866,164.405467 155.912904,161.813065 153.390951,161.136478 C132.22479,155.459009 109.851553,155.459009 88.6863389,161.136478 C86.1643852,161.813065 84.6679504,164.405467 85.3445375,166.927894 C85.9114334,169.039451 87.8215745,170.432341 89.9085455,170.432341 Z" id="Path"></path>
                <path d="M148.220331,108.080418 C145.60949,108.080418 143.492259,110.197648 143.492259,112.80849 C143.492259,115.419331 145.60949,117.536562 148.220331,117.536562 L188.057175,117.536562 C190.668016,117.536562 192.785247,115.419331 192.785247,112.80849 C192.785247,110.197648 190.668016,108.080418 188.057175,108.080418 L148.220331,108.080418 Z" id="Path"></path>
                <path d="M98.5855033,112.80849 C98.5855033,110.197648 96.4687455,108.080418 93.8574313,108.080418 L54.0210601,108.080418 C51.4097459,108.080418 49.2929881,110.197648 49.2929881,112.80849 C49.2929881,115.419331 51.4097459,117.536562 54.0210601,117.536562 L93.8574313,117.536562 C96.4687455,117.536562 98.5855033,115.419331 98.5855033,112.80849 Z" id="Path"></path>
            </g>
        </g>
        <g id="draw" transform="translate(327.237654, 255.500000) rotate(10.000000) translate(-327.237654, -255.500000) translate(206.237654, 117.000000)">
            <path d="M228.937188,21.7192824 L213.345602,8.67582654 C203.485008,0.417705636 189.017684,1.41305531 181.043655,10.890753 L163.466788,31.7821582 L165.593013,44.2360608 L203.007882,76.0779531 L214.782463,74.7243869 L232.359329,53.8329817 C240.333359,44.3498151 238.803266,29.9774033 228.937188,21.7192824 Z" id="Path" fill="#EFEDEF"></path>
            <path d="M186.639504,61.0906018 L184.521323,48.6366992 L202.031695,27.745294 C208.313575,20.2506391 218.638958,18.0657919 227.54275,21.5604537 L213.232869,9.54406743 C203.409578,1.28594652 188.996985,2.2812962 181.053122,11.7589939 L163.54275,32.6503991 L165.660931,45.1043017 L202.934257,76.946194 L204.930057,76.715951 L186.639504,61.0906018 Z" id="Path" fill="#E5E1E5"></path>
            <path d="M18.3720866,216.477783 L7.71291661,219.006561 L5.04153972,222.1686 C4.42556428,222.897892 4.10360156,223.827244 4.13746408,224.77847 L4.96091466,247.943465 L11.1169065,260.896783 L18.6924369,267.272078 L30.7340579,268.477783 L52.9037986,265.3915 C53.8530242,265.259192 54.7194748,264.782779 55.3359878,264.054022 L58.0068272,260.896783 L59.1350405,250.045978 L18.3720866,216.477783 Z" id="Path" fill="#FAE2C0"></path>
            <g id="XMLID_864_" transform="translate(6.728291, 32.377830)">
                <g id="Group">
                    <polygon id="Path" fill="#F47C7C" points="206.864342 42.5636832 156.297971 0.0606335697 144.694081 13.9034941 139.766616 31.4942671 172.480723 64.2623806 195.265856 56.4114161 206.869747 42.5690969"></polygon>
                    <path d="M176.286713,16.8615461 L156.297971,0.0600921986 L144.694081,13.9029527 L139.766616,31.4937258 L172.480723,64.2618392 L195.265856,56.4114161 L199.854446,50.9370709 L177.704906,32.4557423 C173.014167,28.5421702 172.379115,21.5601064 176.286713,16.8615461 Z" id="Path" fill="#EE6161"></path>
                    <polygon id="Path" fill="#FEE45A" points="179.4463 43.1158818 159.027345 50.7865697 149.584794 42.5219976 161.63241 28.1415556 144.694081 13.9034941 0.134577023 186.460137 17.072906 200.697657 28.386564 187.193154 42.362577 206.74369 34.8867963 215.667111 50.7063525 228.9686 195.265856 56.4114161"></polygon>
                    <polygon id="Path" fill="#E94444" transform="translate(98.276611, 121.932243) rotate(-49.989042) translate(-98.276611, -121.932243) " points="-14.2779804 110.388512 210.045829 117.423631 210.831203 133.475975 -13.4926067 126.440856"></polygon>
                </g>
            </g>
            <path d="M4.82438314,247.21711 L4.85354616,248.057189 L5.50971414,267.047508 C5.59824474,269.579904 7.88962499,271.52546 10.3580664,271.176528 L29.8243831,268.406226 L4.82438314,247.21711 Z" id="Path" fill="#AA9EA9"></path>
            <g id="Group" transform="translate(0.417271, 0.392801)" fill="#000000" fill-rule="nonzero">
                <path d="M58.0728574,267.823365 L61.3009266,263.9664 L94.3994324,224.424259 C95.8369488,222.707106 95.6134671,220.1468 93.9006471,218.706188 C92.1878271,217.264494 89.6339817,217.489082 88.197005,219.206235 L57.7030869,255.637153 L48.105249,247.5628 L187.283076,81.2879529 L196.880914,89.3623059 L99.3300652,205.9052 C97.8925487,207.622353 98.1160305,210.182659 99.8288505,211.623271 C101.541131,213.064424 104.094976,212.839835 105.532493,211.123224 L234.57483,56.9577412 C243.848781,45.8782353 242.115448,29.0595529 230.711943,19.4650353 L215.365119,6.55527059 C203.960534,-3.03870588 187.137867,-1.8308 177.863915,9.24870588 L4.59325101,216.254118 L0.947907953,220.608965 C0.304453352,221.377976 -0.0318488435,222.358047 0.00323886544,223.360847 L1.56437201,267.797388 C1.64858251,270.179647 2.75249581,272.434729 4.59379082,273.984118 C6.13495096,275.280776 8.0723323,275.9816 10.0442615,275.9816 C10.3039106,275.9816 10.5640995,275.964824 10.8242883,275.940471 L58.0728574,267.823365 Z M9.25883668,256.212965 L21.2410194,266.293459 L10.0728715,267.862871 C9.95087426,267.881271 9.84938981,267.809835 9.79810777,267.766541 C9.74682574,267.723788 9.66045599,267.632871 9.65613751,267.512188 L9.25883668,256.212965 Z M52.4550453,261.906682 L32.0350783,264.776 L8.87557093,245.292565 L8.15006507,224.633153 L8.19324995,224.581741 L52.49877,261.855271 L52.4550453,261.906682 Z M41.9022818,242.344235 L30.3125417,232.593859 L140.683359,100.735129 C142.120876,99.0179765 141.897394,96.4576706 140.184574,95.0170588 C138.471214,93.5753647 135.917909,93.7999529 134.480932,95.5171059 L24.1101144,227.375835 L13.3975669,218.363624 L152.575394,52.0887765 L163.287941,61.1015294 L145.613992,82.2166118 C144.176476,83.9337647 144.399957,86.4940706 146.112777,87.9346824 C146.871212,88.5732706 147.794828,88.8844471 148.713047,88.8844471 C149.868782,88.8844471 151.01588,88.3914353 151.816419,87.4346353 L169.490368,66.3195529 L181.079569,76.0693882 L41.9022818,242.344235 Z M184.066882,14.4667294 C190.470119,6.81557647 202.176998,6.05738824 210.160262,12.7733882 L225.507086,25.6831529 C233.490889,32.4002353 234.776179,44.0891059 228.372942,51.7391765 L213.672272,69.3019765 L209.484959,65.7794588 C207.771599,64.3377647 205.218293,64.5628941 203.781316,66.2795059 C202.3438,67.9966588 202.567282,70.5569647 204.280102,71.9975765 L208.467415,75.5200941 L202.08685,83.1425647 L157.78079,45.8701176 L164.160815,38.2481882 L191.050416,60.8693647 C191.80885,61.5079529 192.732467,61.8191294 193.650685,61.8191294 C194.80642,61.8191294 195.953518,61.3261176 196.754058,60.3693176 C198.191575,58.6521647 197.968093,56.0918588 196.255273,54.6512471 L169.365132,32.0300706 L184.066882,14.4667294 Z" id="Shape"></path>
            </g>
        </g>
    </g>
</svg>