<?xml version="1.0" encoding="UTF-8"?>
<svg width="511px" height="511px" viewBox="0 0 511 511" version="1.1" xmlns="http://www.w3.org/2000/svg" xmlns:xlink="http://www.w3.org/1999/xlink">
    <!-- Generator: Sketch 52.6 (67491) - http://www.bohemiancoding.com/sketch -->
    <title>gamelog</title>
    <desc>Created with Sketch.</desc>
    <g id="gamelog" stroke="none" stroke-width="1" fill="none" fill-rule="evenodd">
        <rect fill="#50E3C2" x="0" y="0" width="511" height="511"></rect>
        <g id="parchment" transform="translate(233.000000, 87.000000)">
            <g id="Group" transform="translate(3.000000, 3.000000)">
                <path d="M177.687602,164.758181 L151.187565,164.758181 C150.551567,164.758181 149.941553,164.505541 149.491438,164.055825 L145.893714,160.458101 C144.957106,159.521493 143.438467,159.521493 142.501859,160.458101 L138.904135,164.055825 C138.45442,164.505541 137.844405,164.758181 137.208008,164.758181 L21.3864718,164.758181 L21.3864718,34.3162929 L58.5333742,34.3162929 C59.1693719,34.3162929 59.7793861,34.5689331 60.2295013,35.0186487 L63.8272256,38.6163729 C64.7638331,39.5529804 66.2824725,39.5529804 67.21908,38.6163729 L70.8168043,35.0186487 C71.2665198,34.5689331 71.8765339,34.3162929 72.5129314,34.3162929 L177.687602,34.3162929 L177.687602,164.758181 Z" id="Path" fill="#F3DCB0"></path>
                <g id="Path">
                    <g>
                        <polygon fill="#CE9775" points="6.19608062 18.987989 27.3826789 18.987989 27.3826789 180.086085 6.19608062 180.086085"></polygon>
                        <path d="M27.3826789,18.5882419 L6.19608062,18.5882419 L6.19608062,10.7931727 C6.19608062,4.94287335 10.9390804,0.199873568 16.7893797,0.199873568 C22.6400788,0.199873568 27.3826789,4.9424736 27.3826789,10.7931727 L27.3826789,18.5882419 Z" fill="#655E67"></path>
                        <path d="M18.1701064,18.5882419 L18.1701064,10.7931727 C18.1701064,6.59342927 15.7260524,2.96492451 12.1830935,1.25160828 C13.5762123,0.57803436 15.1384241,0.199873568 16.7893797,0.199873568 C22.6396791,0.199873568 27.3826789,4.9424736 27.3826789,10.7931727 L27.3826789,18.5882419 L18.1701064,18.5882419 Z" fill="#544F56"></path>
                        <path d="M30.9804031,24.984196 L2.59835639,24.984196 C1.27359438,24.984196 0.199873568,23.9104752 0.199873568,22.5857132 L0.199873568,14.9905176 C0.199873568,13.6657556 1.27359438,12.5920348 2.59835639,12.5920348 L30.9804031,12.5920348 C32.3051651,12.5920348 33.3788859,13.6657556 33.3788859,14.9905176 L33.3788859,22.5857132 C33.3788859,23.9104752 32.3051651,24.984196 30.9804031,24.984196 Z" fill="#B0AAB3"></path>
                    </g>
                    <g transform="translate(0.000000, 173.890004)">
                        <path d="M27.3826789,6.59582776 L6.19608062,6.59582776 L6.19608062,14.3908969 C6.19608062,20.241596 10.9386806,24.984196 16.7893797,24.984196 C22.6400788,24.984196 27.3826789,20.241596 27.3826789,14.3908969 L27.3826789,6.59582776 Z" fill="#655E67"></path>
                        <path d="M18.1701064,6.59582776 L18.1701064,14.3908969 C18.1701064,18.5906403 15.7260524,22.2191451 12.1830935,23.9324613 C13.5762123,24.606435 15.1384241,24.984196 16.7893797,24.984196 C22.6396791,24.984196 27.3826789,20.241596 27.3826789,14.3908969 L27.3826789,6.59582776 L18.1701064,6.59582776 Z" fill="#544F56"></path>
                        <path d="M30.9804031,0.199873568 L2.59835639,0.199873568 C1.27359438,0.199873568 0.199873568,1.27359438 0.199873568,2.59835639 L0.199873568,10.193552 C0.199873568,11.518314 1.27359438,12.5920348 2.59835639,12.5920348 L30.9804031,12.5920348 C32.3051651,12.5920348 33.3788859,11.518314 33.3788859,10.193552 L33.3788859,2.59835639 C33.3788859,1.27399412 32.3051651,0.199873568 30.9804031,0.199873568 Z" fill="#B0AAB3"></path>
                    </g>
                </g>
                <g transform="translate(15.190391, 0.000000)" id="Path">
                    <g>
                        <polygon fill="#CE9775" points="156.501004 18.987989 177.687602 18.987989 177.687602 180.086085 156.501004 180.086085"></polygon>
                        <path d="M177.687602,18.5882419 L156.501004,18.5882419 L156.501004,10.7931727 C156.501004,4.9424736 161.243604,0.199873568 167.094303,0.199873568 C172.945002,0.199873568 177.687602,4.9424736 177.687602,10.7931727 L177.687602,18.5882419 Z" fill="#655E67"></path>
                        <path d="M168.47503,18.5882419 L168.47503,10.7931727 C168.47503,6.59342927 166.030976,2.96492451 162.488017,1.25160828 C163.881136,0.57803436 165.443347,0.199873568 167.094303,0.199873568 C172.944602,0.199873568 177.687602,4.9424736 177.687602,10.7931727 L177.687602,18.5882419 L168.47503,18.5882419 Z" fill="#544F56"></path>
                        <path d="M181.285326,24.984196 L152.90328,24.984196 C151.578518,24.984196 150.504797,23.9104752 150.504797,22.5857132 L150.504797,14.9905176 C150.504797,13.6657556 151.578518,12.5920348 152.90328,12.5920348 L181.285326,12.5920348 C182.610089,12.5920348 183.683809,13.6657556 183.683809,14.9905176 L183.683809,22.5857132 C183.683809,23.9104752 182.610089,24.984196 181.285326,24.984196 Z" fill="#B0AAB3"></path>
                        <g transform="translate(0.000000, 24.784322)" fill="#C6855B">
                            <polygon points="165.695188 0.199873568 177.687602 0.199873568 177.687602 149.305556 165.695188 149.305556"></polygon>
                            <polygon points="0.199873568 0.199873568 12.1922877 0.199873568 12.1922877 149.305556 0.199873568 149.305556"></polygon>
                        </g>
                    </g>
                    <g transform="translate(3.597724, 12.392161)">
                        <path d="M174.089878,168.093671 L152.90328,168.093671 L152.90328,175.88874 C152.90328,181.739439 157.64588,186.482039 163.496579,186.482039 C169.347278,186.482039 174.089878,181.739439 174.089878,175.88874 L174.089878,168.093671 Z" fill="#655E67"></path>
                        <path d="M164.877306,168.093671 L164.877306,175.88874 C164.877306,180.088484 162.433252,183.716988 158.890293,185.430305 C160.283012,186.104278 161.845623,186.482039 163.496579,186.482039 C169.346878,186.482039 174.089878,181.739439 174.089878,175.88874 L174.089878,168.093671 L164.877306,168.093671 Z" fill="#544F56"></path>
                        <path d="M177.687602,161.697717 L149.305556,161.697717 C147.980794,161.697717 146.907073,162.771438 146.907073,164.0962 L146.907073,171.691395 C146.907073,173.016157 147.980794,174.089878 149.305556,174.089878 L177.687602,174.089878 C179.012364,174.089878 180.086085,173.016157 180.086085,171.691395 L180.086085,164.0962 C180.086085,162.771837 179.012364,161.697717 177.687602,161.697717 Z" fill="#B0AAB3"></path>
                        <g fill="#A199A4">
                            <path d="M177.687602,161.697717 L165.695188,161.697717 C167.01995,161.697717 168.093671,162.771837 168.093671,164.0962 L168.093671,171.691395 C168.093671,173.015757 167.01995,174.089878 165.695188,174.089878 L177.687602,174.089878 C179.012364,174.089878 180.086085,173.015757 180.086085,171.691395 L180.086085,164.0962 C180.086085,162.771837 179.012364,161.697717 177.687602,161.697717 Z"></path>
                            <path d="M177.687602,0.199873568 L165.695188,0.199873568 C167.01995,0.199873568 168.093671,1.27399412 168.093671,2.59835639 L168.093671,10.193552 C168.093671,11.5179142 167.01995,12.5920348 165.695188,12.5920348 L177.687602,12.5920348 C179.012364,12.5920348 180.086085,11.5179142 180.086085,10.193552 L180.086085,2.59835639 C180.086085,1.27399412 179.012364,0.199873568 177.687602,0.199873568 Z"></path>
                            <path d="M12.1922877,161.697717 L0.199873568,161.697717 C1.52463558,161.697717 2.59835639,162.771837 2.59835639,164.0962 L2.59835639,171.691395 C2.59835639,173.015757 1.52463558,174.089878 0.199873568,174.089878 L12.1922877,174.089878 C13.5170497,174.089878 14.5907705,173.015757 14.5907705,171.691395 L14.5907705,164.0962 C14.5907705,162.771837 13.5170497,161.697717 12.1922877,161.697717 Z"></path>
                            <path d="M12.1922877,0.199873568 L0.199873568,0.199873568 C1.52463558,0.199873568 2.59835639,1.27399412 2.59835639,2.59835639 L2.59835639,10.193552 C2.59835639,11.5179142 1.52463558,12.5920348 0.199873568,12.5920348 L12.1922877,12.5920348 C13.5170497,12.5920348 14.5907705,11.5179142 14.5907705,10.193552 L14.5907705,2.59835639 C14.5907705,1.27399412 13.5170497,0.199873568 12.1922877,0.199873568 Z"></path>
                        </g>
                    </g>
                </g>
            </g>
            <path d="M46.0450094,61.2597656 L129.047911,61.2597656 C130.706328,61.2597656 132.050838,59.9152539 132.050838,58.2568359 C132.050838,56.598418 130.706328,55.2539062 129.047911,55.2539062 L46.0450094,55.2539062 C44.386593,55.2539062 43.0420825,56.598418 43.0420825,58.2568359 C43.0420825,59.9152539 44.386593,61.2597656 46.0450094,61.2597656 Z M158.955061,91.2890625 L46.0450094,91.2890625 C44.386593,91.2890625 43.0420825,92.6335742 43.0420825,94.2919922 C43.0420825,95.9504102 44.386593,97.2949219 46.0450094,97.2949219 L158.955061,97.2949219 C160.613478,97.2949219 161.957988,95.9504102 161.957988,94.2919922 C161.957988,92.6335742 160.613478,91.2890625 158.955061,91.2890625 Z M158.955061,73.2714844 L46.0450094,73.2714844 C44.386593,73.2714844 43.0420825,74.6159961 43.0420825,76.2744141 C43.0420825,77.932832 44.386593,79.2773437 46.0450094,79.2773437 L158.955061,79.2773437 C160.613478,79.2773437 161.957988,77.932832 161.957988,76.2744141 C161.957988,74.6159961 160.613478,73.2714844 158.955061,73.2714844 Z M158.955061,55.2539062 L143.06157,55.2539062 C141.403154,55.2539062 140.058643,56.598418 140.058643,58.2568359 C140.058643,59.9152539 141.403154,61.2597656 143.06157,61.2597656 L158.955061,61.2597656 C160.613478,61.2597656 161.957988,59.9152539 161.957988,58.2568359 C161.957988,56.598418 160.613478,55.2539062 158.955061,55.2539062 Z M204.999941,25.4248047 L204.999941,17.8173828 C204.991532,14.615459 202.163576,12.0781836 198.938032,12.4121094 C198.327837,5.46693359 192.48214,0 185.380818,0 C178.279496,0 172.434199,5.4665332 171.823604,12.4121094 C168.636097,12.1866895 165.763698,14.5165625 165.761696,17.8173828 L165.761696,25.4248047 C165.740875,28.5710742 168.580443,31.1648047 171.767549,30.8300781 L171.767549,34.1713379 L75.4324529,34.1713379 C73.9886457,34.1713379 72.6313227,34.7334863 71.6103275,35.7544824 L68.4316293,38.9331836 L65.2529311,35.7544824 C64.2319359,34.7334863 62.874613,34.1713379 61.4308057,34.1713379 L33.2325212,34.1713379 L33.2325212,30.8300781 C36.3735828,30.9994434 39.2563926,28.7280273 39.2383751,25.4248047 L39.2383751,17.8173828 C39.2211583,14.6711133 36.4208288,12.0357422 33.1764666,12.4121094 C32.5662719,5.46693359 26.7205741,5.689893e-15 19.6192526,5.689893e-15 C12.517931,5.689893e-15 6.67263369,5.46693359 6.06203855,12.4121094 C2.87212939,12.1818848 0.00173165585,14.520166 0.000130094834,17.8173828 L0.000130094834,25.4248047 C-0.0194890276,28.5710742 2.81887749,31.1648047 6.00598392,30.8300781 L6.00598392,106.106719 C6.00598392,107.765537 7.35049439,109.109648 9.00891083,109.109648 C10.6673273,109.109648 12.0118377,107.765537 12.0118377,106.106719 L12.0118377,30.8300781 L27.2266674,30.8300781 L27.2266674,174.169922 L12.0118377,174.169922 L12.0118377,120.11999 C12.0118377,118.461172 10.6673273,117.117061 9.00891083,117.117061 C7.35049439,117.117061 6.00598392,118.461172 6.00598392,120.11999 L6.00598392,174.169922 C2.83529349,173.965322 0.0013312656,176.298799 0.000130094834,179.575195 L0.000130094834,187.182617 C-0.0222917594,190.337695 2.85691456,192.955049 6.06203855,192.587891 C6.67263369,199.533467 12.517931,205 19.6192526,205 C26.7205741,205 32.5658715,199.533467 33.1764666,192.587891 C36.3495594,192.810508 39.2531895,190.486641 39.2383751,187.182617 L39.2383751,179.575195 C39.223961,176.455752 36.454862,173.812773 33.2325212,174.169922 L33.2325212,170.828662 L140.232012,170.828662 C141.67622,170.828662 143.033943,170.266113 144.054138,169.245518 L147.232836,166.066816 L150.410733,169.244717 C151.431328,170.266514 152.789051,170.829062 154.233659,170.829062 L171.767549,170.829062 L171.767549,174.169922 C168.599261,173.969727 165.763297,176.295596 165.761696,179.575195 L165.761696,187.182617 C165.738073,190.337695 168.61848,192.955049 171.823604,192.587891 C172.434199,199.533467 178.279496,205 185.380818,205 C192.48214,205 198.327437,199.533467 198.938032,192.587891 C202.109123,192.810508 205.015155,190.486641 204.999941,187.182617 L204.999941,179.575195 C204.995937,176.293994 202.178791,173.93249 198.994087,174.169922 L198.994087,30.8300781 C202.150363,31.0430859 205.013954,28.6959961 204.999941,25.4248047 Z M185.380818,6.00585938 C189.165707,6.00585938 192.305167,8.78737305 192.883731,12.4121094 L177.877505,12.4121094 C178.456869,8.78777344 181.595929,6.00585938 185.380818,6.00585938 Z M19.6192526,6.00585938 C23.4041417,6.00585938 26.5436016,8.78737305 27.1221656,12.4121094 L12.1163396,12.4121094 C12.6953039,8.78777344 15.8343635,6.00585938 19.6192526,6.00585938 Z M19.6192526,198.994141 C15.8343635,198.994141 12.6949035,196.212627 12.1159392,192.587891 L27.122566,192.587891 C26.5436016,196.212627 23.404542,198.994141 19.6192526,198.994141 Z M33.2325212,186.582031 L6.00598392,186.582031 L6.00598392,180.175781 L33.2325212,180.175781 L33.2325212,186.582031 Z M6.00598392,24.8242188 L6.00598392,18.4179688 L33.2325212,18.4179688 L33.2325212,24.8242188 L6.00598392,24.8242188 Z M154.482702,164.823203 L151.054561,161.395059 C148.946906,159.288203 145.517964,159.287803 143.41071,161.395059 L139.982969,164.823203 L33.2325212,164.823203 L33.2325212,40.1771973 L61.181763,40.1771973 L64.6095039,43.6049414 C66.7171582,45.7125977 70.1461004,45.7125977 72.2537547,43.6049414 L75.6814957,40.1771973 L171.767549,40.1771973 L171.767549,164.823203 L154.482702,164.823203 Z M185.380818,198.994141 C181.595929,198.994141 178.456469,196.212627 177.877905,192.587891 L192.884131,192.587891 C192.305167,196.212627 189.166108,198.994141 185.380818,198.994141 Z M198.994087,186.582031 L171.767549,186.582031 L171.767549,180.175781 L198.994087,180.175781 L198.994087,186.582031 Z M177.773403,174.169922 L177.773403,30.8300781 L192.988233,30.8300781 L192.988233,174.169922 L177.773403,174.169922 Z M171.767549,24.8242188 L171.767549,18.4179688 L198.994087,18.4179688 L198.994087,24.8242188 L171.767549,24.8242188 Z M158.955061,127.324219 L46.0450094,127.324219 C44.386593,127.324219 43.0420825,128.66833 43.0420825,130.327148 C43.0420825,131.985967 44.386593,133.330078 46.0450094,133.330078 L158.955061,133.330078 C160.613478,133.330078 161.957988,131.985967 161.957988,130.327148 C161.957988,128.66833 160.613478,127.324219 158.955061,127.324219 Z M122.919938,145.341797 L46.0450094,145.341797 C44.386593,145.341797 43.0420825,146.685908 43.0420825,148.344727 C43.0420825,150.003545 44.386593,151.347656 46.0450094,151.347656 L122.919938,151.347656 C124.578355,151.347656 125.922865,150.003545 125.922865,148.344727 C125.922865,146.685908 124.578355,145.341797 122.919938,145.341797 Z M158.955061,109.306641 L46.0450094,109.306641 C44.386593,109.306641 43.0420825,110.650752 43.0420825,112.30957 C43.0420825,113.968389 44.386593,115.3125 46.0450094,115.3125 L158.955061,115.3125 C160.613478,115.3125 161.957988,113.968389 161.957988,112.30957 C161.957988,110.650752 160.613478,109.306641 158.955061,109.306641 Z" id="Shape" fill="#000000" fill-rule="nonzero"></path>
        </g>
        <g id="gamepad" transform="translate(209.162361, 285.592490) rotate(-15.000000) translate(-209.162361, -285.592490) translate(72.662361, 146.592490)">
            <path d="M180.048925,99.2883599 C202.0306,103.774715 223.546896,103.210018 237.048925,99.2883599 L235.35912,91.0935213 C233.514554,82.1208109 227.747891,74.4449124 218.446858,74.4449124 L198.635679,74.4449124 C189.334646,74.4449124 183.567983,82.1208109 181.723417,91.0935213 L180.048925,99.2883599 Z" id="Path" fill="#365E7D"></path>
            <path d="M126.377511,111.571963 L136.993529,122.715084 L148.377511,111.571963 L148.377511,101.72999 C148.377511,97.8708686 145.136016,94.7150844 141.187799,94.7150844 L137.377782,94.7150844 L133.582941,94.7150844 C129.619548,94.7150844 126.377511,97.8708686 126.377511,101.72999 L126.377511,111.571963 Z" id="Path" fill="#365E7D"></path>
            <path d="M93.4677493,99.8101935 L91.7779449,91.3764211 C89.9333785,82.1420967 84.166716,74.2423949 74.8656827,74.2423949 L55.0698158,74.2423949 C45.7687826,74.2423949 40.0021201,82.1420967 38.1575537,91.3764211 L36.4677493,99.8101935 C54.8991948,100.155345 76.6172825,100.579721 93.4677493,99.8101935 Z" id="Path" fill="#365E7D"></path>
            <path d="M6.20750296,238.096371 C6.20750296,275.888413 62.2009985,286.620235 78.8290723,253.718978 L96.2767361,219.208192 C106.826093,200.825695 105.526317,201.638573 127.24327,201.638573 L137.699318,201.638573 L148.155366,201.638573 C169.887598,201.638573 168.573089,200.826236 179.137724,219.208192 L196.570109,253.718978 C213.198183,286.620235 269.207503,275.888413 269.207503,238.096371 L269.207503,150.323992 C269.207503,140.021054 266.283826,130.39308 261.226049,122.206436 C255.65753,112.608749 247.459447,104.697931 237.622184,99.4242333 C229.145812,94.9012165 219.462972,92.3257524 209.176626,92.3257524 C198.89028,92.3257524 189.207441,94.9012165 180.746893,99.4242333 C174.745114,102.62869 169.377946,106.814225 164.830367,111.750441 L148.774697,111.750441 L137.699864,111.750441 L126.625031,111.750441 C102.185751,111.750441 113.353347,109.419976 94.668659,99.4242333 C86.2075652,94.9012165 76.5247257,92.3257524 66.2231011,92.3257524 C55.9367552,92.3257524 46.2539157,94.9012165 37.7933675,99.4242333 C27.9402803,104.698472 19.7580217,112.60929 14.1895022,122.206436 C9.11590165,130.393621 6.20804863,140.021595 6.20804863,150.323992 L6.20804863,238.096371 L6.20750296,238.096371 Z" id="Path" fill="#F9F6F6"></path>
            <path d="M178.616338,162.858556 C184.690328,162.858556 189.616338,157.932249 189.616338,151.858556 C189.616338,145.784864 184.689789,140.858556 178.616338,140.858556 C172.542887,140.858556 167.616338,145.784864 167.616338,151.858556 C167.616338,157.932249 172.542887,162.858556 178.616338,162.858556 Z" id="Path" fill="#A7E9A6"></path>
            <path d="M197.213287,180.494559 C197.213287,186.568251 202.139836,191.494559 208.213287,191.494559 C214.287277,191.494559 219.213287,186.568251 219.213287,180.494559 C219.213287,174.420866 214.286737,169.494559 208.213287,169.494559 C202.139836,169.494559 197.213287,174.420866 197.213287,180.494559 Z" id="Path" fill="#FFE07D"></path>
            <path d="M226.815215,151.156429 C226.815215,157.230121 231.741764,162.156429 237.815215,162.156429 C243.888665,162.156429 248.815215,157.230121 248.815215,151.156429 C248.815215,145.082736 243.888665,140.156429 237.815215,140.156429 C231.741764,140.156429 226.815215,145.082736 226.815215,151.156429 Z" id="Path" fill="#22A6FE"></path>
            <path d="M197.477085,121.554501 C197.477085,127.628193 202.403634,132.554501 208.477085,132.554501 C214.551075,132.554501 219.477085,127.628193 219.477085,121.554501 C219.477085,115.480808 214.550536,110.554501 208.477085,110.554501 C202.403634,110.554501 197.477085,115.480808 197.477085,121.554501 Z" id="Path" fill="#EB5468"></path>
            <path d="M65.2046853,192.512683 C87.5859638,192.512683 105.712298,174.373932 105.712298,152.012683 C105.712298,129.651433 87.58542,111.512683 65.2046853,111.512683 C42.839176,111.512683 24.712298,129.651433 24.712298,152.012683 C24.712298,174.373932 42.839176,192.512683 65.2046853,192.512683 Z M84.3799381,152.012683 C84.3799381,162.60019 75.7944666,171.183817 65.2052291,171.183817 C54.6312169,171.183817 46.0457455,162.599646 46.0457455,152.012683 C46.0457455,141.425176 54.6312169,132.841548 65.2052291,132.841548 C75.7944666,132.841005 84.3799381,141.425176 84.3799381,152.012683 Z" id="Shape" fill="#365E7D"></path>
            <path d="M65.8171241,170.659129 C76.314046,170.659129 84.8246704,162.151586 84.8246704,151.659129 C84.8246704,141.166134 76.314046,132.659129 65.8171241,132.659129 C55.3352949,132.659129 46.8246704,141.166673 46.8246704,151.659129 C46.8246704,162.151586 55.3352949,170.659129 65.8171241,170.659129 Z" id="Path" fill="#F9F6F6"></path>
            <path d="M214.790011,270.364578 C237.651415,278.735736 268.560192,265.596511 268.560192,237.631715 L268.560192,149.858405 C268.560192,139.555357 265.61257,129.927281 260.51337,121.74055 C254.899243,112.142761 246.634017,104.23186 236.716186,98.9581056 C228.170391,94.4350408 218.408248,91.8595494 208.037656,91.8595494 C204.108042,91.8595494 200.271402,92.2273222 196.560192,92.9325807 C203.764758,94.7725264 210.454948,97.8693899 216.349643,101.993313 C223.492044,106.976094 229.480262,113.430507 233.862086,120.927664 C237.58925,126.891533 240.162231,133.622316 241.285056,140.82796 C245.776357,142.269305 249.019952,146.424056 249.019952,151.314893 C249.019952,155.975873 246.07233,159.961881 241.908909,161.571969 L241.908909,236.81937 C241.908909,254.465975 229.604593,266.209827 214.790011,270.364578 Z" id="Path" fill="#DDDAEC"></path>
            <path d="M76.0393831,93.9540423 C82.6526437,95.0596761 88.9071519,97.2097302 94.6004215,100.234649 L92.9001989,91.9881701 C91.0442602,82.9589177 85.2420442,75.234649 75.8836669,75.234649 L55.9657518,75.234649 C54.0162733,75.234649 52.2379175,75.5726771 50.6004215,76.1712687 L58.8044082,76.1712687 C68.1627855,76.1712687 73.9650015,83.8955374 75.8209403,92.9247898 L76.0393831,93.9540423 Z" id="Path" fill="#2B4D66"></path>
            <path d="M236.525278,98.5831485 C236.617245,98.629194 236.694064,98.6752395 236.78603,98.721285 C236.694064,98.6752395 236.617245,98.629194 236.525278,98.5831485 Z M215.976184,92.1335277 C223.244781,93.0241019 230.099528,95.2202016 236.31051,98.4758895 C236.37164,98.5067671 236.448459,98.5528126 236.525278,98.5831485 C230.130364,95.2044919 223.168503,93.008934 215.976184,92.1335277 Z M215.976184,92.1335277 C223.3216,93.0241019 230.253166,95.2662471 236.525278,98.5831485 C236.663228,98.6600716 236.78603,98.7364529 236.92398,98.7982081 L235.252354,90.5517292 C233.427632,81.5224768 227.723006,73.7982081 218.522032,73.7982081 L198.92398,73.7982081 C208.140101,73.7982081 213.844727,81.5224768 215.66999,90.5517292 L215.976184,92.1335277 Z" id="Shape" fill="#2B4D66"></path>
            <path d="M65.2214871,192.203096 C87.8342238,192.203096 106.148013,174.064345 106.148013,151.703096 C106.148013,129.341846 87.8336744,111.203096 65.2214871,111.203096 C60.0198983,111.203096 55.0523482,112.174048 50.4737634,113.915346 C58.0893552,118.168833 64.1782026,124.76489 67.7755836,132.701579 C77.2596379,133.934568 84.5950427,141.963677 84.5950427,151.703639 C84.5950427,162.291146 75.9207837,170.874774 65.2220364,170.874774 C65.1440236,170.874774 65.0665601,170.874774 64.9726151,170.874774 C60.3160175,178.148758 53.3706769,183.851061 45.1480134,186.994967 C51.0808352,190.307402 57.9333295,192.203096 65.2214871,192.203096 Z" id="Path" fill="#2B4D66"></path>
            <path d="M65.5556151,170.857889 C76.2552097,170.857889 84.9301557,162.350467 84.9301557,151.858159 C84.9301557,142.205278 77.5947194,134.247956 68.1093645,133.02599 C67.2681876,132.919311 66.4275601,132.857889 65.5550657,132.857889 C63.0161509,132.857889 60.5865727,133.346568 58.359734,134.217245 C64.184788,137.485518 68.1093645,143.656228 68.1093645,150.697076 C68.1093645,158.700195 63.0634019,165.542771 55.9301557,168.337451 C58.7025781,169.89508 61.8953143,170.811554 65.306174,170.85735 L65.5556151,170.85735 L65.5556151,170.857889 Z" id="Path" fill="#DDDAEC"></path>
            <path d="M31.0117362,271.439146 C48.145482,276.581874 68.8903959,271.531484 77.9734651,253.655236 L95.6074139,218.995596 C105.409077,202.042736 105.080939,201.350195 122.011736,201.350195 L111.803624,201.350195 L101.235939,201.350195 C79.2716767,201.350195 80.6002203,200.534354 69.9227884,218.995596 L52.2888396,253.655236 C47.5984022,262.878253 39.8129931,268.683104 31.0117362,271.439146 Z" id="Path" fill="#DDDAEC"></path>
            <g id="Group" transform="translate(0.503830, 0.521630)" fill="#000000">
                <path d="M207.537092,107.002611 C199.140048,107.002611 192.308369,113.769635 192.308369,122.087209 C192.308369,130.404783 199.139502,137.171807 207.537092,137.171807 C215.934683,137.171807 222.765815,130.404783 222.765815,122.087209 C222.765815,113.769635 215.934683,107.002611 207.537092,107.002611 Z M207.537092,129.056572 C203.657542,129.056572 200.501687,125.930584 200.501687,122.087209 C200.501687,118.243834 203.657542,115.117846 207.537092,115.117846 C211.416643,115.117846 214.572498,118.243834 214.572498,122.087209 C214.572498,125.930584 211.416643,129.056572 207.537092,129.056572 Z" id="Shape" fill-rule="nonzero"></path>
                <path d="M177.980851,136.280213 C169.583807,136.280213 162.752129,143.047236 162.752129,151.364811 C162.752129,159.682385 169.583261,166.449408 177.980851,166.449408 C186.378442,166.449408 193.209574,159.682385 193.209574,151.364811 C193.209574,143.046695 186.378442,136.280213 177.980851,136.280213 Z M177.980851,158.333633 C174.101301,158.333633 170.945446,155.207645 170.945446,151.36427 C170.945446,147.521436 174.101301,144.394906 177.980851,144.394906 C181.860402,144.394906 185.016257,147.520895 185.016257,151.36427 C185.016803,155.207645 181.860402,158.333633 177.980851,158.333633 Z" id="Shape" fill-rule="nonzero"></path>
                <path d="M207.537092,165.557273 C199.140048,165.557273 192.308369,172.324297 192.308369,180.641871 C192.308369,188.959445 199.139502,195.726469 207.537092,195.726469 C215.934683,195.726469 222.765815,188.959445 222.765815,180.641871 C222.765815,172.324297 215.934683,165.557273 207.537092,165.557273 Z M207.537092,187.611234 C203.657542,187.611234 200.501687,184.485246 200.501687,180.641871 C200.501687,176.799037 203.657542,173.672508 207.537092,173.672508 C211.416643,173.672508 214.572498,176.798496 214.572498,180.641871 C214.572498,184.484705 211.416643,187.611234 207.537092,187.611234 Z" id="Shape" fill-rule="nonzero"></path>
                <path d="M113.053687,178.740201 C113.053687,180.981088 114.887775,182.797818 117.150072,182.797818 L125.464096,182.797818 C127.726394,182.797818 129.560482,180.981088 129.560482,178.740201 C129.560482,176.499314 127.726394,174.682584 125.464096,174.682584 L117.150072,174.682584 C114.887775,174.682584 113.053687,176.499314 113.053687,178.740201 Z" id="Path"></path>
                <path d="M142.438972,178.740201 C142.438972,180.981088 144.27306,182.797818 146.535357,182.797818 L154.834635,182.797818 C157.097478,182.797818 158.93102,180.981088 158.93102,178.740201 C158.93102,176.499314 157.096932,174.682584 154.834635,174.682584 L146.535904,174.682584 C144.27306,174.682584 142.438972,176.499314 142.438972,178.740201 Z" id="Path"></path>
                <path d="M147.06188,128.933762 L124.921735,128.933762 C122.659438,128.933762 120.825349,130.750492 120.825349,132.991379 C120.825349,135.232266 122.659438,137.048996 124.921735,137.048996 L147.06188,137.048996 C149.324723,137.048996 151.158265,135.232266 151.158265,132.991379 C151.158811,130.750492 149.324723,128.933762 147.06188,128.933762 Z" id="Path"></path>
                <path d="M109.232032,151.364811 C109.232032,126.90333 89.1417189,107.002611 64.4476145,107.002611 C39.7617028,107.002611 19.67849,126.90333 19.67849,151.364811 C19.67849,175.826291 39.7617028,195.726469 64.4476145,195.726469 C89.1417189,195.726469 109.232032,175.82575 109.232032,151.364811 Z M27.871261,151.364811 C27.871261,131.378611 44.2791968,115.118387 64.4476145,115.118387 C84.6242249,115.118387 101.039261,131.378611 101.039261,151.364811 C101.039261,171.35101 84.6242249,187.611234 64.4476145,187.611234 C44.2791968,187.611234 27.871261,171.35101 27.871261,151.364811 Z" id="Shape" fill-rule="nonzero"></path>
                <path d="M87.8041124,151.364811 C87.8041124,138.607121 77.3261044,128.228277 64.4476145,128.228277 C51.5767711,128.228277 41.1058635,138.607121 41.1058635,151.364811 C41.1058635,164.121959 51.5767711,174.500803 64.4476145,174.500803 C77.3261044,174.500803 87.8041124,164.121959 87.8041124,151.364811 Z M49.2986345,151.364811 C49.2986345,143.081861 56.0942651,136.344053 64.4470683,136.344053 C72.8086104,136.344053 79.6107952,143.082402 79.6107952,151.364811 C79.6107952,159.647219 72.8086104,166.385568 64.4470683,166.385568 C56.0942651,166.385568 49.2986345,159.647219 49.2986345,151.364811 Z" id="Shape" fill-rule="nonzero"></path>
                <path d="M267.62506,189.69685 C265.362217,189.69685 263.528675,191.51358 263.528675,193.754467 L263.528675,237.70874 C263.528675,255.488137 249.665414,265.043555 237.793542,267.824375 C224.012755,271.050451 206.543036,267.26226 198.581847,251.520328 L179.887582,214.816746 C175.051663,206.38123 172.624964,202.147242 168.258763,199.648291 C163.901847,197.153668 158.957783,197.160701 149.096418,197.178014 L122.888835,197.178014 C113.028562,197.162324 108.081767,197.153668 103.722667,199.65316 C99.357012,202.15698 96.9286747,206.399084 92.0911165,214.849748 L73.4028594,251.519246 C65.4416707,267.261719 47.9779598,271.052615 34.200996,267.824375 C22.3318554,265.044637 8.4713253,255.489219 8.4713253,237.70874 L8.4713253,193.754467 C8.4713253,191.51358 6.63723695,189.69685 4.37493976,189.69685 C2.11264257,189.69685 0.278554217,191.51358 0.278554217,193.754467 L0.278554217,237.70874 C0.278554217,256.242854 12.8539116,271.164064 32.3155663,275.722121 C49.2314538,279.68452 70.7620562,274.860824 80.727743,255.15433 L99.2177349,218.852723 C103.195598,211.903918 105.386892,208.076232 107.828337,206.676625 C110.276337,205.272689 114.751229,205.281346 122.875181,205.293248 L149.110618,205.293248 C157.230747,205.279182 161.7111,205.272148 164.159647,206.67392 C166.599454,208.070822 168.789108,211.889852 172.763149,218.823508 L191.255871,255.153248 C199.128032,270.719891 214.214201,276.999459 228.546635,276.999459 C232.360096,276.999459 236.122217,276.554203 239.678426,275.72158 C259.143357,271.162441 271.7209,256.241771 271.7209,237.70874 L271.7209,193.754467 C271.721446,191.51358 269.887904,189.69685 267.62506,189.69685 Z" id="Path"></path>
                <path d="M263.159454,119.709986 C257.446908,109.885143 249.268337,101.91977 239.660948,96.4089844 L238.337542,89.9497988 C235.818538,77.6227578 227.807647,69.9652227 217.431229,69.9652227 L197.644048,69.9652227 C187.267084,69.9652227 179.256193,77.6232988 176.737189,89.954668 L175.431261,96.3857207 C170.296578,99.3250586 165.555695,102.974209 161.375743,107.263381 L151.174651,107.263381 L151.174651,101.229434 C151.174651,95.1116289 146.224032,90.128875 140.089285,89.991998 L140.089285,72.0443457 C140.089285,66.6033516 144.565269,62.1767617 150.066442,62.1767617 L182.022618,62.1767617 C192.033639,62.1767617 200.177253,54.1026445 200.177253,44.1782539 C200.177253,34.2619785 192.033092,26.1948945 182.022618,26.1948945 L150.066442,26.1948945 C144.564723,26.1948945 140.089285,21.7612715 140.089285,16.3116211 L140.089285,4.05761719 C140.089285,1.81673047 138.255197,-1.42108547e-14 135.9929,-1.42108547e-14 C133.730602,-1.42108547e-14 131.896514,1.81673047 131.896514,4.05761719 L131.896514,16.3116211 C131.896514,26.2360117 140.047775,34.3106699 150.066442,34.3106699 L182.022618,34.3106699 C187.515598,34.3106699 191.984482,38.7372598 191.984482,44.1782539 C191.984482,49.6279043 187.515598,54.0615273 182.022618,54.0615273 L150.066442,54.0615273 C140.047775,54.0615273 131.896514,62.1286113 131.896514,72.0448867 L131.896514,89.9936211 C125.760129,90.1386133 120.811149,95.1175801 120.811149,101.230516 L120.811149,107.264463 L110.610602,107.264463 C106.434474,102.979619 101.69796,99.3326328 96.568739,96.394918 L95.2486104,89.9514219 C92.7301526,77.6243809 84.719261,69.9668457 74.341751,69.9668457 L54.5693173,69.9668457 C44.1923534,69.9668457 36.1814618,77.6249219 33.6635502,89.9492578 L32.3401446,96.4073613 C22.7333012,101.918146 14.5552771,109.88352 8.84163855,119.709986 C3.23942169,128.763883 0.278554217,139.204943 0.278554217,149.907314 L0.278554217,175.028293 C0.278554217,177.26918 2.11264257,179.08591 4.37493976,179.08591 C6.63723695,179.08591 8.4713253,177.26918 8.4713253,175.028293 L8.4713253,149.907314 C8.4713253,140.685162 11.0241928,131.693482 15.8541044,123.903939 C15.8748594,123.870396 15.8956145,123.836312 15.9152771,123.802229 C25.884241,106.620654 44.480739,95.946957 64.4470683,95.946957 C80.1460562,95.946957 95.2213012,102.546807 105.808,114.053668 C106.584129,114.897652 107.683598,115.378074 108.836048,115.378074 L163.149205,115.378074 C164.301655,115.378074 165.400578,114.897111 166.177253,114.053668 C176.762859,102.546266 191.838651,95.946957 207.537639,95.946957 C227.513253,95.946957 246.115759,106.620654 256.084723,123.802229 C256.103839,123.834689 256.122956,123.86715 256.142618,123.89907 C260.974715,131.715664 263.528675,140.708967 263.528675,149.907314 L263.528675,175.028293 C263.528675,177.26918 265.362763,179.08591 267.62506,179.08591 C269.887904,179.08591 271.721446,177.26918 271.721446,175.028293 L271.721446,149.907314 C271.721446,139.231994 268.761124,128.790934 263.159454,119.709986 Z M64.4470683,87.8317227 C56.5268434,87.8317227 48.7955984,89.298957 41.5963373,92.0300039 L41.693012,91.5593203 C43.0246104,85.0427871 47.1057028,78.079916 54.5693173,78.079916 L74.3406586,78.079916 C81.8037269,78.079916 85.8859116,85.0427871 87.21751,91.5614844 L87.3130924,92.0283809 C80.0761446,89.2881367 72.331245,87.8317227 64.4470683,87.8317227 Z M142.981333,107.263381 L129.003373,107.263381 L129.003373,101.229434 C129.003373,99.5008887 130.422908,98.094248 132.168514,98.094248 L139.832578,98.094248 C141.539406,98.094248 142.98188,99.5295625 142.98188,101.229434 L142.98188,107.263381 L142.981333,107.263381 Z M207.537092,87.8317227 C199.653462,87.8317227 191.909108,89.2881367 184.672161,92.0278398 L184.767197,91.5593203 C186.098795,85.0427871 190.179888,78.079916 197.643502,78.079916 L217.430683,78.079916 C224.893205,78.079916 228.97539,85.0427871 230.307534,91.5614844 L230.404209,92.03325 C223.200578,89.3000391 215.463871,87.8317227 207.537092,87.8317227 Z" id="Shape" fill-rule="nonzero"></path>
                <path d="M237.093333,166.449408 C245.490378,166.449408 252.322056,159.682385 252.322056,151.364811 C252.322056,143.047236 245.490924,136.280213 237.093333,136.280213 C228.695743,136.280213 221.86461,143.047236 221.86461,151.364811 C221.86461,159.682385 228.696289,166.449408 237.093333,166.449408 Z M237.093333,144.395447 C240.972884,144.395447 244.128739,147.521436 244.128739,151.364811 C244.128739,155.207645 240.972884,158.334174 237.093333,158.334174 C233.213783,158.334174 230.057928,155.208186 230.057928,151.364811 C230.057928,147.521977 233.213783,144.395447 237.093333,144.395447 Z" id="Shape" fill-rule="nonzero"></path>
            </g>
        </g>
    </g>
</svg>